<svg class="svg-icon" style="width: 1em; height: 1em;vertical-align: middle;fill: currentColor;overflow: hidden;" viewBox="0 0 1024 1024" version="1.1" xmlns="http://www.w3.org/2000/svg"><path d="M482.16576 873.315328c0 31.17568 59.669504 31.17568 59.669504 0 0-31.169536 0-646.098944 0-646.098944s-15.458304-10.351616-29.835264-10.351616c-14.785536 0-29.83424 11.12576-29.83424 11.12576S482.16576 842.144768 482.16576 873.315328zM571.66848 157.136896c0 0-27.938816-29.83424-59.669504-29.83424-36.709376 0-59.669504 29.83424-59.669504 29.83424L183.82336 455.539712c0 0 53.957632 25.28768 89.50272 0 90.056704-64.21504 176.356352-238.674944 238.67392-238.674944 62.32064 0 161.467392 168.984576 238.674944 238.674944 31.75936 28.612608 89.50272 0 89.50272 0L571.66848 157.136896z"  /></svg>