<svg width="25" height="25" viewBox="0 0 25 25" fill="none" xmlns="http://www.w3.org/2000/svg">
<path d="M19.0727 7.3675C19.868 7.3675 20.5127 6.72279 20.5127 5.9275C20.5127 5.13221 19.868 4.4875 19.0727 4.4875C18.2774 4.4875 17.6327 5.13221 17.6327 5.9275C17.6327 6.72279 18.2774 7.3675 19.0727 7.3675Z" fill="white"/>
<path d="M12.6667 6.1715C11.448 6.1715 10.2566 6.53289 9.24326 7.20998C8.22993 7.88707 7.44013 8.84944 6.97374 9.9754C6.50735 11.1014 6.38533 12.3403 6.62309 13.5356C6.86085 14.731 7.44772 15.8289 8.3095 16.6907C9.17127 17.5525 10.2692 18.1393 11.4645 18.3771C12.6599 18.6149 13.8988 18.4928 15.0248 18.0264C16.1507 17.5601 17.1131 16.7703 17.7902 15.7569C18.4673 14.7436 18.8287 13.5522 18.8287 12.3335C18.8287 10.6992 18.1795 9.1319 17.0239 7.9763C15.8683 6.8207 14.301 6.1715 12.6667 6.1715ZM12.6667 16.3335C11.8756 16.3335 11.1022 16.0989 10.4444 15.6594C9.78661 15.2198 9.27392 14.5951 8.97117 13.8642C8.66842 13.1333 8.5892 12.3291 8.74355 11.5531C8.89789 10.7772 9.27885 10.0645 9.83826 9.50507C10.3977 8.94566 11.1104 8.5647 11.8863 8.41035C12.6622 8.25601 13.4665 8.33523 14.1974 8.63798C14.9283 8.94073 15.553 9.45342 15.9926 10.1112C16.4321 10.769 16.6667 11.5424 16.6667 12.3335C16.6667 13.3944 16.2453 14.4118 15.4951 15.1619C14.745 15.9121 13.7276 16.3335 12.6667 16.3335Z" fill="white"/>
<path d="M12.6667 2.4955C15.8707 2.4955 16.2507 2.5075 17.5157 2.5655C18.2765 2.57453 19.0302 2.71423 19.7437 2.9785C20.2613 3.17819 20.7315 3.48404 21.1238 3.87638C21.5161 4.26871 21.822 4.73883 22.0217 5.2565C22.286 5.97002 22.4257 6.72366 22.4347 7.4845C22.4927 8.7495 22.5047 9.1295 22.5047 12.3345C22.5047 15.5395 22.4927 15.9175 22.4347 17.1825C22.4257 17.9433 22.286 18.697 22.0217 19.4105C21.822 19.9282 21.5161 20.3983 21.1238 20.7906C20.7315 21.183 20.2613 21.4888 19.7437 21.6885C19.0302 21.9528 18.2765 22.0925 17.5157 22.1015C16.2507 22.1595 15.8707 22.1715 12.6667 22.1715C9.46269 22.1715 9.08269 22.1595 7.81769 22.1015C7.05685 22.0925 6.30322 21.9528 5.58969 21.6885C5.07202 21.4888 4.6019 21.183 4.20957 20.7906C3.81723 20.3983 3.51138 19.9282 3.31169 19.4105C3.04742 18.697 2.90772 17.9433 2.89869 17.1825C2.84069 15.9175 2.82869 15.5375 2.82869 12.3335C2.82869 9.1295 2.84069 8.7495 2.89869 7.4845C2.90772 6.72366 3.04742 5.97002 3.31169 5.2565C3.51138 4.73883 3.81723 4.26871 4.20957 3.87638C4.6019 3.48404 5.07202 3.17819 5.58969 2.9785C6.30322 2.71423 7.05685 2.57453 7.81769 2.5655C9.08269 2.5075 9.46269 2.4955 12.6667 2.4955ZM12.6667 0.333496C9.40769 0.333496 8.99869 0.347496 7.71869 0.405496C6.72346 0.425592 5.73884 0.614265 4.80669 0.963496C4.00941 1.27179 3.28535 1.74327 2.6809 2.34771C2.07646 2.95215 1.60498 3.67622 1.29669 4.4735C0.947345 5.40597 0.75867 6.39093 0.738687 7.3865C0.680687 8.6665 0.666687 9.0735 0.666687 12.3335C0.666687 15.5935 0.680687 16.0015 0.738687 17.2815C0.758783 18.2767 0.947456 19.2613 1.29669 20.1935C1.60498 20.9908 2.07646 21.7148 2.6809 22.3193C3.28535 22.9237 4.00941 23.3952 4.80669 23.7035C5.73916 24.0528 6.72412 24.2415 7.71969 24.2615C8.99969 24.3195 9.40769 24.3335 12.6667 24.3335C15.9257 24.3335 16.3347 24.3195 17.6147 24.2615C18.6103 24.2415 19.5952 24.0528 20.5277 23.7035C21.325 23.3952 22.049 22.9237 22.6535 22.3193C23.2579 21.7148 23.7294 20.9908 24.0377 20.1935C24.3867 19.261 24.575 18.276 24.5947 17.2805C24.6527 16.0005 24.6667 15.5935 24.6667 12.3335C24.6667 9.0735 24.6527 8.6655 24.5947 7.3855C24.5746 6.39027 24.3859 5.40565 24.0367 4.4735C23.7284 3.67622 23.2569 2.95215 22.6525 2.34771C22.048 1.74327 21.324 1.27179 20.5267 0.963496C19.5942 0.614496 18.6092 0.426159 17.6137 0.406496C16.3337 0.346496 15.9267 0.333496 12.6667 0.333496Z" fill="white"/>
</svg>
