<svg width="25" height="24" viewBox="0 0 25 24" fill="none" xmlns="http://www.w3.org/2000/svg">
<path d="M19.073 7.034C19.8683 7.034 20.513 6.38929 20.513 5.594C20.513 4.79871 19.8683 4.154 19.073 4.154C18.2777 4.154 17.633 4.79871 17.633 5.594C17.633 6.38929 18.2777 7.034 19.073 7.034Z" fill="#373435"/>
<path d="M12.667 5.838C11.4483 5.838 10.2569 6.19939 9.24357 6.87648C8.23023 7.55357 7.44043 8.51595 6.97405 9.6419C6.50766 10.7679 6.38563 12.0068 6.62339 13.2021C6.86116 14.3975 7.44803 15.4954 8.3098 16.3572C9.17157 17.219 10.2695 17.8058 11.4648 18.0436C12.6602 18.2814 13.8991 18.1593 15.0251 17.6929C16.151 17.2266 17.1134 16.4368 17.7905 15.4234C18.4676 14.4101 18.829 13.2187 18.829 12C18.829 10.3657 18.1798 8.79841 17.0242 7.64281C15.8686 6.48721 14.3013 5.838 12.667 5.838ZM12.667 16C11.8759 16 11.1025 15.7654 10.4447 15.3259C9.78691 14.8864 9.27422 14.2616 8.97147 13.5307C8.66872 12.7998 8.58951 11.9956 8.74385 11.2196C8.89819 10.4437 9.27915 9.73098 9.83856 9.17157C10.398 8.61216 11.1107 8.2312 11.8866 8.07686C12.6626 7.92252 13.4668 8.00173 14.1977 8.30448C14.9286 8.60723 15.5533 9.11992 15.9929 9.77772C16.4324 10.4355 16.667 11.2089 16.667 12C16.667 13.0609 16.2456 14.0783 15.4954 14.8284C14.7453 15.5786 13.7279 16 12.667 16Z" fill="#373435"/>
<path d="M12.667 2.162C15.871 2.162 16.251 2.174 17.516 2.232C18.2768 2.24103 19.0305 2.38073 19.744 2.645C20.2617 2.84469 20.7318 3.15055 21.1241 3.54288C21.5164 3.93521 21.8223 4.40534 22.022 4.923C22.2863 5.63653 22.426 6.39016 22.435 7.151C22.493 8.416 22.505 8.796 22.505 12.001C22.505 15.206 22.493 15.584 22.435 16.849C22.426 17.6098 22.2863 18.3635 22.022 19.077C21.8223 19.5947 21.5164 20.0648 21.1241 20.4571C20.7318 20.8495 20.2617 21.1553 19.744 21.355C19.0305 21.6193 18.2768 21.759 17.516 21.768C16.251 21.826 15.871 21.838 12.667 21.838C9.46299 21.838 9.08299 21.826 7.81799 21.768C7.05715 21.759 6.30352 21.6193 5.58999 21.355C5.07233 21.1553 4.60221 20.8495 4.20987 20.4571C3.81754 20.0648 3.51168 19.5947 3.31199 19.077C3.04772 18.3635 2.90802 17.6098 2.89899 16.849C2.84099 15.584 2.82899 15.204 2.82899 12C2.82899 8.796 2.84099 8.416 2.89899 7.151C2.90802 6.39016 3.04772 5.63653 3.31199 4.923C3.51168 4.40534 3.81754 3.93521 4.20987 3.54288C4.60221 3.15055 5.07233 2.84469 5.58999 2.645C6.30352 2.38073 7.05715 2.24103 7.81799 2.232C9.08299 2.174 9.46299 2.162 12.667 2.162ZM12.667 0C9.40799 0 8.99899 0.014 7.71899 0.072C6.72377 0.0920961 5.73915 0.280769 4.80699 0.63C4.00972 0.938297 3.28565 1.40978 2.68121 2.01422C2.07677 2.61866 1.60529 3.34272 1.29699 4.14C0.947651 5.07247 0.758976 6.05744 0.738992 7.053C0.680992 8.333 0.666992 8.74 0.666992 12C0.666992 15.26 0.680992 15.668 0.738992 16.948C0.759088 17.9432 0.947762 18.9278 1.29699 19.86C1.60529 20.6573 2.07677 21.3813 2.68121 21.9858C3.28565 22.5902 4.00972 23.0617 4.80699 23.37C5.73947 23.7193 6.72443 23.908 7.71999 23.928C8.99999 23.986 9.40799 24 12.667 24C15.926 24 16.335 23.986 17.615 23.928C18.6106 23.908 19.5955 23.7193 20.528 23.37C21.3253 23.0617 22.0493 22.5902 22.6538 21.9858C23.2582 21.3813 23.7297 20.6573 24.038 19.86C24.387 18.9275 24.5753 17.9425 24.595 16.947C24.653 15.667 24.667 15.26 24.667 12C24.667 8.74 24.653 8.332 24.595 7.052C24.5749 6.05677 24.3862 5.07216 24.037 4.14C23.7287 3.34272 23.2572 2.61866 22.6528 2.01422C22.0483 1.40978 21.3243 0.938297 20.527 0.63C19.5945 0.281 18.6095 0.0926631 17.614 0.073C16.334 0.013 15.927 0 12.667 0Z" fill="#373435"/>
</svg>
