<svg width="139" height="40" viewBox="0 0 139 40" fill="none" xmlns="http://www.w3.org/2000/svg">
<path fill-rule="evenodd" clip-rule="evenodd" d="M4.23355 0H10.2631C10.3625 0 10.4529 0.0370671 10.5186 0.0971363L41.0454 27.9385C41.1454 28.0375 41.2263 28.1443 41.2263 28.2344V37.1687C41.2263 37.2588 41.1454 37.3329 41.0454 37.3329H37.7426L3.76974 6.45934H3.77037C3.62065 6.32003 3.51044 6.19415 3.51044 6.04525V0.657569C3.51044 0.295876 3.836 0 4.23355 0Z" fill="#373435"/>
<path fill-rule="evenodd" clip-rule="evenodd" d="M0.723113 12.325H6.75266C6.85205 12.325 6.94315 12.3627 7.00814 12.4221L24.1914 28.1206C24.2908 28.2197 24.3718 28.3264 24.3718 28.4165V37.3508C24.3718 37.4409 24.2896 37.5151 24.1914 37.5151H20.8868L0.259935 18.7844C0.110218 18.6457 0 18.5192 0 18.3709V12.9826C0 12.6209 0.325562 12.325 0.723113 12.325V12.325Z" fill="#6A8998"/>
<path fill-rule="evenodd" clip-rule="evenodd" d="M21.2684 0H27.298C27.398 0 27.4891 0.0370672 27.5547 0.0971364L41.0454 12.4369C41.1454 12.5353 41.2263 12.6426 41.2263 12.7327V21.6664C41.2263 21.7565 41.1454 21.8313 41.0454 21.8313H37.7426L20.8059 6.45934C20.6555 6.32004 20.5466 6.19415 20.5466 6.04525V0.65757C20.5466 0.295876 20.8715 0 21.2684 0V0Z" fill="#946A65"/>
<path fill-rule="evenodd" clip-rule="evenodd" d="M59 8V10.4001H55.1389V22H52.8795V10.4001H49V8H52.8795H55.1389H59Z" fill="#373435"/>
<path fill-rule="evenodd" clip-rule="evenodd" d="M65.7962 8L72 22H69.4083L68.3484 19.5999L67.2878 17.1997L64.5 10.9202L61.7123 17.1997H65.2856L66.3456 19.5999H60.6523L59.5917 22H57L63.2045 8H65.7962V8Z" fill="#373435"/>
<path fill-rule="evenodd" clip-rule="evenodd" d="M81.874 18.6111C81.874 19.2913 81.7759 19.8886 81.5601 20.4244C81.3444 20.9809 81.0496 21.4339 80.6766 21.8047C80.2839 22.1962 79.8129 22.4849 79.2635 22.6907C78.7136 22.8971 78.105 23 77.4182 23C76.3386 23 75.3571 22.8143 74.5124 22.4435C73.6684 22.0934 72.9618 21.6811 72.4125 21.2074L74.0414 19.497C74.4736 19.9093 74.9644 20.2186 75.494 20.4451C75.8281 20.5894 76.1222 20.6716 76.4169 20.713C76.7117 20.7538 76.9472 20.7745 77.1235 20.7745C77.457 20.7745 77.7715 20.7337 78.0662 20.6302C78.3406 20.548 78.5761 20.4244 78.7925 20.2801C79.2438 19.93 79.4596 19.4763 79.4596 18.9205C79.4596 18.5697 79.3418 18.261 79.1063 17.9931C78.9293 17.7666 78.6938 17.6016 78.3997 17.4573C78.1642 17.313 77.909 17.2101 77.6537 17.1279C77.3985 17.045 77.163 16.9629 76.9472 16.9007C76.888 16.88 76.8294 16.86 76.7702 16.8393C76.7117 16.8393 76.6722 16.8185 76.6327 16.7978C76.613 16.7978 76.5742 16.7771 76.515 16.7564C76.24 16.6742 75.8479 16.5299 75.3374 16.3241C74.8071 16.1177 74.2966 15.8297 73.7861 15.479C72.5888 14.6345 72 13.6042 72 12.3882C72 11.5851 72.1375 10.8843 72.4125 10.3277C72.6677 9.77186 73.021 9.31821 73.4526 8.96811C73.8848 8.61801 74.3756 8.37081 74.9052 8.22649C75.4354 8.08218 75.9459 8 76.4564 8C77.3985 8 78.184 8.1236 78.8313 8.3501C79.4793 8.57659 79.9898 8.8238 80.3628 9.05029C80.5589 9.17389 80.7358 9.29749 80.8733 9.40105C81.0102 9.52466 81.1286 9.62755 81.2266 9.73044L79.5576 11.5023C79.2043 11.1315 78.8511 10.8429 78.478 10.6578C77.9287 10.3899 77.359 10.2456 76.7505 10.2456C76.4952 10.2456 76.2209 10.287 75.9656 10.3484C75.7104 10.4106 75.4749 10.5135 75.2782 10.6164C74.7091 10.9872 74.4144 11.4816 74.4144 12.0796C74.4144 12.4504 74.5321 12.7597 74.7677 13.0269C74.9446 13.2334 75.1801 13.4185 75.4749 13.5835C75.7301 13.7278 75.9847 13.8307 76.2597 13.9135C76.5347 13.9957 76.7899 14.0779 77.0255 14.14L77.261 14.2015C77.3202 14.2222 77.457 14.2636 77.634 14.3251C77.811 14.3872 78.0267 14.4694 78.282 14.5723C78.5372 14.6759 78.8116 14.8202 79.1063 14.9638C79.401 15.1081 79.6754 15.2939 79.9701 15.4997C81.2463 16.3856 81.874 17.4158 81.874 18.6111V18.6111ZM91.1203 8.30867H93.4755V22.7321H91.1203V16.7564H85.4074V22.7321H83.0516V8.30867H85.4074V14.2844H91.1203V8.30867ZM105.764 22.7735H102.428L97.2056 17.2922V22.7321H94.8498V8.32938H97.2056V13.7899L102.388 8.3501H105.726L98.8746 15.5411L105.764 22.7735V22.7735ZM115.894 10.7814H109.004V14.2844H114.127L114.717 16.7564H109.004V20.2594H115.894V22.7321H106.648V8.30867H115.894V10.7814V10.7814ZM125.239 8.28796H127.594V22.7114H125.042L119.526 12.8419V22.7114H117.17V8.28796H119.722L125.239 18.1581V8.28796V8.28796ZM139 8.30867V10.7814H134.975V22.7321H132.62V10.7814H128.576V8.30867H132.62H134.975H139Z" fill="#373435"/>
<path fill-rule="evenodd" clip-rule="evenodd" d="M60.4464 25.5964H63.0203V39.3919H60.6624V29.6172L56.1237 36.6523L51.6047 29.6172V39.3919H49.2468V25.5964H51.8207L56.1237 32.2973L60.4464 25.5964ZM73.6504 27.9813H66.7537V31.3318H71.8818L72.4717 33.6962H66.7537V37.0466H73.6504V39.4117H64.3958V25.6162H73.6504V27.9813V27.9813ZM84.9679 25.6162V27.9813H80.9395V39.4117H78.5822V27.9813H74.5347V25.6162H78.5822H80.9395H84.9679Z" fill="#373435"/>
<path fill-rule="evenodd" clip-rule="evenodd" d="M91.3542 25.6162L97.5628 39.4117H94.9691L93.9084 37.0466L92.847 34.6815L90.0571 28.4938L87.2672 34.6815H90.8433L91.904 37.0466H86.2064L85.145 39.4117H82.5514L88.7606 25.6162H91.3542ZM100.804 37.0466H106.208V39.4117H100.804H98.4465V37.0466V25.636H100.804V37.0466Z" fill="#373435"/>
</svg>
