<svg width="27" height="27" viewBox="0 0 27 27" fill="none" xmlns="http://www.w3.org/2000/svg">
<path d="M13.3333 24C16.1623 24 18.8754 22.8762 20.8758 20.8758C22.8762 18.8754 24 16.1623 24 13.3333C24 10.5044 22.8762 7.79125 20.8758 5.79086C18.8754 3.79047 16.1623 2.66667 13.3333 2.66667C10.5044 2.66667 7.79125 3.79047 5.79086 5.79086C3.79047 7.79125 2.66667 10.5044 2.66667 13.3333C2.66667 16.1623 3.79047 18.8754 5.79086 20.8758C7.79125 22.8762 10.5044 24 13.3333 24ZM13.3333 26.6667C5.96933 26.6667 0 20.6973 0 13.3333C0 5.96933 5.96933 0 13.3333 0C20.6973 0 26.6667 5.96933 26.6667 13.3333C26.6667 20.6973 20.6973 26.6667 13.3333 26.6667ZM9.18667 14.8933L5.856 13.8547C5.136 13.6347 5.132 13.1387 6.01733 12.7827L18.9947 7.76933C19.748 7.46267 20.1747 7.85067 19.9307 8.82267L17.7213 19.2493C17.5667 19.992 17.12 20.1693 16.5 19.8267L13.0987 17.3093L11.5133 18.84C11.3507 18.9973 11.2187 19.132 10.968 19.1653C10.7187 19.2 10.5133 19.1253 10.3627 18.712L9.20267 14.884L9.18667 14.8947V14.8933Z" fill="#373435"/>
</svg>
