<svg width="30" height="24" viewBox="0 0 30 24" fill="none" xmlns="http://www.w3.org/2000/svg">
<path fill-rule="evenodd" clip-rule="evenodd" d="M14.9955 0.00289579C12.1272 0.00289579 9.26552 1.03968 6.93499 3.11273C5.53233 4.36048 4.44825 5.87867 3.69536 7.54115C3.59087 7.5306 3.48919 7.50657 3.38191 7.50657C1.50846 7.50657 0 9.10569 0 11.0917V15.5227C0 17.5087 1.50846 19.1078 3.38191 19.1078C3.4892 19.1078 3.59088 19.0832 3.69536 19.0733C3.83016 19.3695 3.96963 19.6635 4.12683 19.9523C4.74133 21.115 6.38304 20.1196 5.74909 18.9686C3.15344 14.2024 4.15869 8.16285 8.1354 4.62536C12.1122 1.08779 17.8885 1.08779 21.8653 4.62536C25.8421 8.16285 26.8474 14.2023 24.2517 18.9686L24.2237 19.0179L24.205 19.0672C24.205 19.0672 22.9443 22.0238 20.4688 22.0238L17.3352 21.9941C17.0414 21.5391 16.5711 21.2223 16.0095 21.2223H13.9895C13.0838 21.2223 12.3552 21.9973 12.3552 22.9574C12.3552 23.5497 12.7097 23.9994 13.5209 23.9994L20.4688 24C24.1836 24 25.7902 20.1338 25.8634 19.9549V19.9443C26.0192 19.658 26.1563 19.364 26.2902 19.0704C26.3993 19.081 26.5057 19.105 26.6181 19.105C28.4915 19.105 30 17.5059 30 15.5199V11.0889C30 9.10286 28.4915 7.50373 26.6181 7.50373C26.5099 7.50373 26.4077 7.52269 26.3023 7.5383C25.5512 5.87571 24.4703 4.35769 23.0675 3.10985C20.737 1.0368 17.8634 0 14.9949 0L14.9955 0.00289579ZM10.9195 6.30181C10.1915 6.25142 9.52645 6.41462 8.94534 7.06333C7.39575 8.7928 6.43846 11.1467 6.43846 13.6536C6.43846 15.7213 7.09032 18.0383 8.18843 18.1229C9.75286 18.2435 12.2216 17.1544 15.0004 17.1544C17.9451 17.1544 20.5436 18.3764 22.0847 18.0871C23.0186 17.9121 23.5647 15.5454 23.5647 13.6536C23.5647 11.1467 22.605 8.7928 21.0554 7.06333C19.5058 5.33379 17.365 7.06333 15.0004 7.06333C13.5225 7.06333 12.1328 6.38626 10.9195 6.30181V6.30181ZM10.5725 10.5641C11.4363 10.5645 12.1366 11.3068 12.1368 12.2226C12.1366 13.1384 11.4363 13.8807 10.5725 13.881C9.7086 13.8807 9.00836 13.1384 9.00808 12.2226C9.00836 11.3068 9.7086 10.5645 10.5725 10.5641V10.5641ZM19.4284 10.5641C20.2923 10.5645 20.9925 11.3068 20.9929 12.2226C20.9925 13.1384 20.2923 13.8807 19.4284 13.881C18.5646 13.8807 17.8644 13.1384 17.8641 12.2226C17.8644 11.3068 18.5646 10.5645 19.4284 10.5641Z" fill="white"/>
</svg>
