<svg width="167" height="48" viewBox="0 0 167 48" fill="none" xmlns="http://www.w3.org/2000/svg">
<g clip-path="url(#clip0_175_934)">
<path fill-rule="evenodd" clip-rule="evenodd" d="M4.86277 1H12.0568C12.1754 1 12.2833 1.04369 12.3617 1.11448L48.7842 33.9279C48.9035 34.0446 49 34.1705 49 34.2766V44.8065C49 44.9127 48.9035 45 48.7842 45H44.8435L4.30938 8.61288H4.31013C4.13149 8.44869 4 8.30033 4 8.12484V1.775C4 1.34872 4.38844 1 4.86277 1Z" fill="white"/>
<path fill-rule="evenodd" clip-rule="evenodd" d="M1.83076 16H8.75792C8.87211 16 8.97677 16.0434 9.05143 16.1118L28.7927 34.1846C28.9069 34.2987 29 34.4215 29 34.5253V44.8109C29 44.9146 28.9056 45 28.7927 45H24.9962L1.29863 23.4364C1.12663 23.2767 1 23.131 1 22.9603V16.7571C1 16.3407 1.37403 16 1.83076 16Z" fill="white"/>
<path fill-rule="evenodd" clip-rule="evenodd" d="M25.8377 1H32.8354C32.9515 1 33.0572 1.04245 33.1333 1.11124L48.7901 15.2421C48.9061 15.3547 49 15.4776 49 15.5808V25.8112C49 25.9143 48.9061 26 48.7901 26H44.957L25.3009 8.39688C25.1264 8.23736 25 8.0932 25 7.92269V1.75301C25 1.33882 25.3771 1 25.8377 1Z" fill="white"/>
<path fill-rule="evenodd" clip-rule="evenodd" d="M71.8849 8.6001V11.4802H67.246V25.4001H64.5315V11.4802H59.8705V8.6001H64.5315H67.246H71.8849Z" fill="white"/>
<path fill-rule="evenodd" clip-rule="evenodd" d="M80.0501 8.6001L87.5036 25.4001H84.3898L83.1164 22.52L81.8422 19.6397L78.4928 12.1043L75.1436 19.6397H79.4367L80.7102 22.52H73.87L72.5958 25.4001H69.482L76.9363 8.6001H80.0501Z" fill="white"/>
<path fill-rule="evenodd" clip-rule="evenodd" d="M99.3666 21.3334C99.3666 22.1497 99.2487 22.8664 98.9895 23.5094C98.7303 24.1772 98.3761 24.7208 97.928 25.1657C97.4562 25.6355 96.8903 25.982 96.2302 26.2289C95.5696 26.4766 94.8384 26.6001 94.0132 26.6001C92.7162 26.6001 91.5369 26.3773 90.5221 25.9323C89.5081 25.5122 88.6591 25.0174 87.9992 24.449L89.9562 22.3965C90.4755 22.8913 91.0652 23.2624 91.7014 23.5342C92.1028 23.7074 92.4562 23.806 92.8102 23.8557C93.1644 23.9047 93.4474 23.9295 93.6592 23.9295C94.0598 23.9295 94.4377 23.8805 94.7918 23.7563C95.1214 23.6577 95.4044 23.5094 95.6644 23.3362C96.2066 22.9161 96.4659 22.3717 96.4659 21.7047C96.4659 21.2837 96.3243 20.9133 96.0414 20.5918C95.8287 20.32 95.5458 20.122 95.1924 19.9489C94.9095 19.7757 94.6029 19.6522 94.2962 19.5536C93.9896 19.4541 93.7066 19.3556 93.4474 19.2809C93.3762 19.2561 93.3058 19.2321 93.2347 19.2073C93.1644 19.2073 93.117 19.1823 93.0695 19.1575C93.0458 19.1575 92.9992 19.1326 92.9281 19.1078C92.5977 19.0091 92.1266 18.836 91.5133 18.589C90.8762 18.3413 90.2628 17.9957 89.6495 17.5749C88.211 16.5615 87.5036 15.3251 87.5036 13.8659C87.5036 12.9022 87.6688 12.0613 87.9992 11.3933C88.3058 10.7263 88.7303 10.1819 89.2488 9.76183C89.7681 9.34171 90.3577 9.04507 90.994 8.87189C91.631 8.69871 92.2444 8.6001 92.8577 8.6001C93.9896 8.6001 94.9333 8.74842 95.711 9.02022C96.4895 9.29201 97.1029 9.58866 97.551 9.86045C97.7866 10.0088 97.9991 10.1571 98.1643 10.2814C98.3288 10.4297 98.4711 10.5532 98.5888 10.6766L96.5836 12.8029C96.1591 12.3579 95.7348 12.0116 95.2865 11.7895C94.6266 11.468 93.9421 11.2948 93.211 11.2948C92.9043 11.2948 92.5748 11.3445 92.268 11.4182C91.9614 11.4928 91.6785 11.6163 91.4422 11.7398C90.7584 12.1847 90.4044 12.778 90.4044 13.4956C90.4044 13.9406 90.5458 14.3117 90.8288 14.6324C91.0414 14.8802 91.3243 15.1023 91.6785 15.3003C91.9851 15.4735 92.291 15.5969 92.6214 15.6963C92.9518 15.7949 93.2584 15.8936 93.5414 15.9681L93.8244 16.0419C93.8955 16.0667 94.0599 16.1164 94.2725 16.1902C94.4852 16.2647 94.7443 16.3634 95.051 16.4869C95.3576 16.6112 95.6873 16.7843 96.0414 16.9567C96.3954 17.1298 96.7251 17.3528 97.0792 17.5997C98.6125 18.6628 99.3666 19.8991 99.3666 21.3334ZM110.475 8.9705H113.305V26.2786H110.475V19.1078H103.612V26.2786H100.781V8.9705H103.612V16.1414H110.475V8.9705ZM128.069 26.3283H124.061L117.787 19.7507V26.2786H114.956V8.99535H117.787V15.548L124.013 9.02022H128.023L119.792 17.6494L128.069 26.3283ZM140.24 11.9378H131.962V16.1414H138.117L138.825 19.1078H131.962V23.3114H140.24V26.2786H129.131V8.9705H140.24V11.9378ZM151.467 8.94565H154.296V26.2538H151.23L144.603 14.4104V26.2538H141.773V8.94565H144.839L151.467 20.7898V8.94565ZM168 8.9705V11.9378H163.164V26.2786H160.335V11.9378H155.476V8.9705H160.335H163.164H168Z" fill="white"/>
<path fill-rule="evenodd" clip-rule="evenodd" d="M75.6227 30.7158H78.715V47.2704H75.8822V35.5408L70.4292 43.9829L64.9999 35.5408V47.2704H62.167V30.7158H65.2594L70.4292 38.7569L75.6227 30.7158ZM91.4865 33.5777H83.2005V37.5983H89.3616L90.0703 40.4356H83.2005V44.4561H91.4865V47.2942H80.3676V30.7396H91.4865V33.5777ZM105.084 30.7396V33.5777H100.244V47.2942H97.4117V33.5777H92.5489V30.7396H97.4117H100.244H105.084Z" fill="white"/>
<path fill-rule="evenodd" clip-rule="evenodd" d="M112.756 30.7393L120.216 47.2939H117.1L115.825 44.4557L114.55 41.6176L111.198 34.1924L107.846 41.6176H112.143L113.417 44.4557H106.572L105.297 47.2939H102.18L109.64 30.7393H112.756ZM124.11 44.4557H130.602V47.2939H124.11H121.277V44.4557V30.763H124.11V44.4557Z" fill="white"/>
</g>
<defs>
<clipPath id="clip0_175_934">
<rect width="167" height="48" fill="white"/>
</clipPath>
</defs>
</svg>
